<?xml version="1.0" encoding="UTF-8"?>
<svg version="1.1" xmlns="http://www.w3.org/2000/svg" width="612" height="408">
<path d="M0 0 C2 0.1875 2 0.1875 4 1 C4.66 1.99 5.32 2.98 6 4 C8.55183404 5.20450304 8.55183404 5.20450304 11 6 C11.165 5.360625 11.33 4.72125 11.5 4.0625 C13 2 13 2 16.875 1.125 C20.18400243 0.88608286 22.30673892 0.8838663 25 3 C26.36244796 4.64295195 27.69864875 6.30824337 29 8 C29.99 8.495 29.99 8.495 31 9 C31.268125 8.4225 31.53625 7.845 31.8125 7.25 C33.0683393 4.87051502 34.16341767 2.97627763 36 1 C38.4453125 0.57421875 38.4453125 0.57421875 41.125 0.6875 C42.01445312 0.71199219 42.90390625 0.73648438 43.8203125 0.76171875 C46 1 46 1 47 2 C47.46215355 5.32750556 47.26940098 6.63438438 45.25 9.375 C44.5075 10.24125 43.765 11.1075 43 12 C40.57467228 15.2826888 38.82110685 17.77330412 39.4375 22 C42.22144229 27.3460895 42.22144229 27.3460895 46 32 C46.99 32 47.98 32 49 32 C49.44730469 30.83984375 49.89460938 29.6796875 50.35546875 28.484375 C60.33598187 2.66401813 60.33598187 2.66401813 62 1 C63.85287502 0.92773498 65.70833878 0.9161878 67.5625 0.9375 C68.57441406 0.94652344 69.58632813 0.95554688 70.62890625 0.96484375 C71.41136719 0.97644531 72.19382812 0.98804688 73 1 C76.24180158 6.98486445 78.62104958 13.13755038 80.89306641 19.5390625 C82.34762033 23.62631431 82.34762033 23.62631431 85 27 C86.19703984 24.60592032 86.17088644 22.98867144 86.24609375 20.31640625 C86.29540039 18.92518555 86.29540039 18.92518555 86.34570312 17.50585938 C86.40677565 15.5476403 86.46408308 13.5893001 86.51757812 11.63085938 C86.55173828 10.70208984 86.58589844 9.77332031 86.62109375 8.81640625 C86.65867798 7.53938843 86.65867798 7.53938843 86.69702148 6.23657227 C87 4 87 4 89 1 C90.9453125 0.70703125 90.9453125 0.70703125 93.125 0.8125 C94.40375 0.874375 95.6825 0.93625 97 1 C99.15758273 6.24955168 99.24042211 10.80810284 99.125 16.375 C99.11597656 17.20644531 99.10695313 18.03789062 99.09765625 18.89453125 C99.0742622 20.92981337 99.03839725 22.96494564 99 25 C100.65 24.67 102.3 24.34 104 24 C103.505 23.525625 103.01 23.05125 102.5 22.5625 C100.2699563 18.75284202 100.32749144 15.31152712 101 11 C102.73312429 7.46956163 103.97162495 5.59537503 107.375 3.625 C111.73158254 2.58771844 114.75146488 2.43001658 118.875 4.3125 C119.57625 4.869375 120.2775 5.42625 121 6 C121 9 121 9 119.375 10.75 C116.22485359 12.40797179 114.37974305 11.84493576 111 11 C108.69328085 13.71549154 108.69328085 13.71549154 109.375 16.1875 C109.58125 16.785625 109.7875 17.38375 110 18 C113.05263664 18.98120464 114.94736336 18.98120464 118 18 C118 18.66 118 19.32 118 20 C118.99 20.33 119.98 20.66 121 21 C121 22.32 121 23.64 121 25 C120.01 25.66 119.02 26.32 118 27 C117.71125 27.886875 117.4225 28.77375 117.125 29.6875 C115.78581575 33.63065363 113.96046905 37.03135286 111 40 C107.99430069 40.97951018 105.22581015 41.12863469 102.078125 41.1328125 C100.66273438 41.13474609 100.66273438 41.13474609 99.21875 41.13671875 C98.2390625 41.13285156 97.259375 41.12898438 96.25 41.125 C94.80367188 41.13080078 94.80367188 41.13080078 93.328125 41.13671875 C78.70186074 41.11684611 78.70186074 41.11684611 75 38.6875 C74 37 74 37 74 33 C72.0833362 32.97890464 70.16605489 33.00978557 68.25 33.0625 C66.64898437 33.07990234 66.64898437 33.07990234 65.015625 33.09765625 C61.58749305 34.12343148 61.30354035 34.59380438 59.609375 37.55859375 C59.07828125 38.69425781 58.5471875 39.82992187 58 41 C54.62618193 41.23373107 51.25444999 41.37483519 47.875 41.5 C46.44800781 41.60054687 46.44800781 41.60054687 44.9921875 41.703125 C42.12133513 41.7828709 39.77756197 41.7477626 37 41 C34.95178266 39.05529135 33.62728234 37.17672106 32.22314453 34.73242188 C31.61768799 33.87487305 31.61768799 33.87487305 31 33 C30.01 33 29.02 33 28 33 C27.2575 33.763125 26.515 34.52625 25.75 35.3125 C21.05260793 39.90313316 15.19602383 41.35615694 9 43 C9.50273437 43.40347656 10.00546875 43.80695313 10.5234375 44.22265625 C12 46 12 46 12.0390625 48.12109375 C11.90242188 48.88550781 11.76578125 49.64992187 11.625 50.4375 C11.06307464 53.69336164 11.14758735 55.82092004 12 59 C11 60 11 60 8.71484375 60.09765625 C7.79832031 60.08605469 6.88179688 60.07445312 5.9375 60.0625 C5.01839844 60.05347656 4.09929687 60.04445312 3.15234375 60.03515625 C2.44207031 60.02355469 1.73179687 60.01195312 1 60 C0.30185892 55.98568878 -0.03409512 52.26381424 0.0625 48.1875 C0.11592877 43.77294763 -0.52680002 39.83504248 -1.48828125 35.5390625 C-2.32339908 31.39534807 -2.65969506 27.20903475 -3 23 C-6.44681311 23 -8.47537961 25.84355341 -11 28 C-13.88415883 29.44207941 -16.41721528 29.09394887 -19.625 29.0625 C-20.81351562 29.05347656 -22.00203125 29.04445312 -23.2265625 29.03515625 C-24.14179688 29.02355469 -25.05703125 29.01195312 -26 29 C-26.66 32.63 -27.32 36.26 -28 40 C-34.625 41.25 -34.625 41.25 -38 39 C-38.30417228 36.25747556 -38.42005798 33.74447373 -38.3984375 31 C-38.40130768 30.20851562 -38.40417786 29.41703125 -38.40713501 28.6015625 C-38.40917777 26.92707606 -38.40363307 25.25256588 -38.39111328 23.578125 C-38.37506172 21.00987571 -38.39095383 18.44320014 -38.41015625 15.875 C-38.40817385 14.24999651 -38.40433025 12.62499401 -38.3984375 11 C-38.40451019 10.22914063 -38.41058289 9.45828125 -38.4168396 8.6640625 C-38.38818359 6.5 -38.38818359 6.5 -38 3 C-33.50891115 0.00594077 -29.38217973 0.92024312 -24.125 1.1875 C-23.13113281 1.21908203 -22.13726562 1.25066406 -21.11328125 1.28320312 C-12.12290753 1.69842119 -12.12290753 1.69842119 -8 5 C-7.071875 5.721875 -6.14375 6.44375 -5.1875 7.1875 C-4.465625 7.785625 -3.74375 8.38375 -3 9 C-2.814375 7.329375 -2.814375 7.329375 -2.625 5.625 C-2 2 -2 2 0 0 Z M11 8 C8.88219336 11.17670996 8.75107854 11.96247318 8.76953125 15.59765625 C8.77146484 16.48130859 8.77339844 17.36496094 8.77539062 18.27539062 C8.78763672 19.19513672 8.79988281 20.11488281 8.8125 21.0625 C8.81314453 21.98611328 8.81378906 22.90972656 8.81445312 23.86132812 C8.67296989 28.58778865 8.67296989 28.58778865 10 33 C13.25834377 32.70530338 14.62864228 32.41955521 16.8359375 29.92578125 C19.99258837 24.69538877 19.99258837 24.69538877 21.1875 18.8125 C19.64779519 15.16583071 17.85038422 11.78892041 15 9 C12.91218304 8.26731015 12.91218304 8.26731015 11 8 Z M-25 13 C-25.33 14.65 -25.66 16.3 -26 18 C-23.21176345 19.0326802 -22.1322726 19.04509293 -19.25 18.0625 C-18.5075 17.711875 -17.765 17.36125 -17 17 C-17.33 15.68 -17.66 14.36 -18 13 C-20.31 13 -22.62 13 -25 13 Z " fill="#FDFCFC" transform="translate(283,175)"/>
<path d="M0 0 C2.5 0.125 2.5 0.125 3.5 1.125 C3.54063832 2.79117115 3.542721 4.45888095 3.5 6.125 C4.634375 5.939375 5.76875 5.75375 6.9375 5.5625 C8.7009375 5.3459375 8.7009375 5.3459375 10.5 5.125 C11.5 6.125 11.5 6.125 11.5625 9.6875 C11.541875 10.821875 11.52125 11.95625 11.5 13.125 C12.6135083 12.96491455 13.7270166 12.8048291 14.87426758 12.63989258 C19.75602678 12.03286115 24.59674046 11.92780831 29.51171875 11.88671875 C30.44297073 11.878647 31.37422272 11.87057526 32.33369446 11.86225891 C34.28925766 11.84851023 36.24484393 11.83774745 38.20043945 11.82983398 C40.19725593 11.81824641 42.19403986 11.79768952 44.19067383 11.76831055 C47.08956747 11.72573223 49.98755174 11.70948694 52.88671875 11.69921875 C54.22122322 11.67295662 54.22122322 11.67295662 55.58268738 11.64616394 C59.3277611 11.65929028 62.06298569 11.94874349 65.55932617 13.35888672 C68.85697555 18.0591468 68.21082403 23.21598433 68.1640625 28.80859375 C68.16884613 30.05625015 68.17362976 31.30390656 68.17855835 32.58937073 C68.18196208 35.22883775 68.1752502 37.86599067 68.15185547 40.50512695 C68.12339409 43.87942613 68.13975371 47.25173453 68.16971779 50.62596035 C68.19218754 53.85357501 68.17642809 57.08095304 68.1640625 60.30859375 C68.17924423 62.12126991 68.17924423 62.12126991 68.19473267 63.9705658 C68.07895842 72.25574785 68.07895842 72.25574785 65.33081055 76.38183594 C62.12140192 78.35813414 60.29082058 78.77437199 56.54296875 78.83203125 C54.87524414 78.87553711 54.87524414 78.87553711 53.17382812 78.91992188 C52.02333984 78.92572266 50.87285156 78.93152344 49.6875 78.9375 C47.93276367 78.97520508 47.93276367 78.97520508 46.14257812 79.01367188 C43.2613807 79.07247182 40.38170017 79.10880532 37.5 79.125 C39.64389017 82.40238304 39.64389017 82.40238304 43.1875 83.875 C43.950625 83.9575 44.71375 84.04 45.5 84.125 C45.83 85.115 46.16 86.105 46.5 87.125 C45.84 88.115 45.18 89.105 44.5 90.125 C41.66272675 90.39167539 39.04616955 90.47291234 36.2109375 90.41796875 C35.39251373 90.41372391 34.57408997 90.40947906 33.73086548 90.40510559 C31.11191164 90.38828679 28.49372198 90.35062974 25.875 90.3125 C24.1015736 90.29745726 22.32813516 90.28376814 20.5546875 90.27148438 C16.2028297 90.23837292 11.85154449 90.18656952 7.5 90.125 C6.375 86.375 6.375 86.375 7.5 84.125 C8.49 83.815625 9.48 83.50625 10.5 83.1875 C11.49 82.836875 12.48 82.48625 13.5 82.125 C13.995 80.64 13.995 80.64 14.5 79.125 C13.44872925 79.11883667 13.44872925 79.11883667 12.3762207 79.11254883 C9.18746795 79.07956628 6.00061395 79.00891668 2.8125 78.9375 C1.70970703 78.93169922 0.60691406 78.92589844 -0.52929688 78.91992188 C-5.19666442 78.7930146 -8.57917286 78.62564388 -12.71875 76.375 C-15.54428059 71.21964595 -15.28332255 66.09936094 -15.3125 60.3125 C-15.35020508 58.55776367 -15.35020508 58.55776367 -15.38867188 56.76757812 C-15.44747182 53.8863807 -15.48380532 51.00670017 -15.5 48.125 C-17.48 47.795 -19.46 47.465 -21.5 47.125 C-21.005 44.155 -21.005 44.155 -20.5 41.125 C-17.5 40.125 -17.5 40.125 -14.5 41.125 C-14.51160156 40.27035156 -14.52320313 39.41570312 -14.53515625 38.53515625 C-14.54417969 37.43042969 -14.55320313 36.32570312 -14.5625 35.1875 C-14.57410156 34.08535156 -14.58570313 32.98320312 -14.59765625 31.84765625 C-14.5 29.125 -14.5 29.125 -13.5 28.125 C-11.16055264 28.41230055 -8.8260857 28.74436779 -6.5 29.125 C-6.5 26.485 -6.5 23.845 -6.5 21.125 C-3.035 20.63 -3.035 20.63 0.5 20.125 C0.5 19.135 0.5 18.145 0.5 17.125 C-0.799375 17.145625 -2.09875 17.16625 -3.4375 17.1875 C-4.79165633 17.20899454 -6.14756083 17.19648199 -7.5 17.125 C-8.5 16.125 -8.5 16.125 -8.5625 13.0625 C-8.5315625 11.6084375 -8.5315625 11.6084375 -8.5 10.125 C-6.52 9.465 -4.54 8.805 -2.5 8.125 C-2.83 7.795 -3.16 7.465 -3.5 7.125 C-3.625 4.125 -3.625 4.125 -3.5 1.125 C-2.5 0.125 -2.5 0.125 0 0 Z M18.5 16.125 C18.17 18.105 17.84 20.085 17.5 22.125 C16.530625 22.104375 15.56125 22.08375 14.5625 22.0625 C11.62534105 21.76881501 11.62534105 21.76881501 10.5 23.125 C10.45907063 25.45797433 10.45758277 27.79205225 10.5 30.125 C9.365625 30.104375 8.23125 30.08375 7.0625 30.0625 C3.68424326 29.70922523 3.68424326 29.70922523 2.5 31.125 C2.33333333 33.625 2.33333333 33.625 2.5 36.125 C2.83 36.455 3.16 36.785 3.5 37.125 C8.15065613 36.67706891 8.15065613 36.67706891 12.5 35.125 C14.49960012 35.085008 16.50047242 35.08153201 18.5 35.125 C18.5 36.115 18.5 37.105 18.5 38.125 C17.2934375 38.4653125 17.2934375 38.4653125 16.0625 38.8125 C15.216875 39.245625 14.37125 39.67875 13.5 40.125 C12.60613836 42.67275306 12.60613836 42.67275306 12.5 45.125 C13.16 45.516875 13.82 45.90875 14.5 46.3125 C16.5 48.125 16.5 48.125 16.75 50.8125 C16.6675 51.575625 16.585 52.33875 16.5 53.125 C10.98696391 52.9871741 8.03360696 50.6394348 4.13671875 47.046875 C1.97719616 44.511111 1.5 42.42726386 1.5 39.125 C-0.15 38.795 -1.8 38.465 -3.5 38.125 C-3.5 40.435 -3.5 42.745 -3.5 45.125 C-5.81 45.455 -8.12 45.785 -10.5 46.125 C-12.81468316 60.58307676 -12.81468316 60.58307676 -9.5 74.125 C-6.62255732 75.56372134 -4.15434078 75.24437153 -0.93896484 75.23852539 C-0.26567642 75.23867142 0.407612 75.23881744 1.1013031 75.2389679 C3.33058881 75.23827027 5.55979135 75.23048489 7.7890625 75.22265625 C9.33320063 75.22079154 10.87733934 75.21936789 12.42147827 75.21836853 C16.48870472 75.21454754 20.55589555 75.20472082 24.62310791 75.19366455 C28.7721712 75.18344144 32.92124025 75.17886898 37.0703125 75.17382812 C45.21355803 75.16309819 53.35677458 75.14602677 61.5 75.125 C61.5 74.465 61.5 73.805 61.5 73.125 C62.16 73.125 62.82 73.125 63.5 73.125 C63.5 71.145 63.5 69.165 63.5 67.125 C39.08 67.125 14.66 67.125 -10.5 67.125 C-10.17 66.135 -9.84 65.145 -9.5 64.125 C14.59 63.795 38.68 63.465 63.5 63.125 C63.726875 55.926875 63.95375 48.72875 64.1875 41.3125 C64.26701904 39.04270264 64.34653809 36.77290527 64.4284668 34.43432617 C64.47826965 32.6372404 64.52693186 30.84012249 64.57421875 29.04296875 C64.61115845 28.10827759 64.64809814 27.17358643 64.68615723 26.21057129 C64.70682251 25.31761353 64.72748779 24.42465576 64.7487793 23.50463867 C64.78541939 22.34214851 64.78541939 22.34214851 64.82279968 21.15617371 C64.64252178 19.05016272 64.64252178 19.05016272 63.25244141 17.37255859 C61.06756236 15.81714874 59.87861489 15.76096526 57.2121582 15.78442383 C56.35149246 15.78465042 55.49082672 15.78487701 54.6040802 15.78511047 C53.67899155 15.80059433 52.75390289 15.81607819 51.80078125 15.83203125 C50.37550362 15.83839851 50.37550362 15.83839851 48.9214325 15.84489441 C45.88483412 15.86169516 42.84889798 15.89935008 39.8125 15.9375 C37.75456687 15.95254503 35.69662335 15.96623375 33.63867188 15.97851562 C28.59219252 16.01160329 23.54620856 16.06339538 18.5 16.125 Z M19.5 78.125 C18.51 81.095 17.52 84.065 16.5 87.125 C23.1 87.125 29.7 87.125 36.5 87.125 C35.55685064 83.35240255 34.93767489 81.10666128 32.5 78.125 C29.30624623 77.51942058 29.30624623 77.51942058 25.8125 77.8125 C24.63300781 77.85761719 23.45351562 77.90273437 22.23828125 77.94921875 C20.88283203 78.03623047 20.88283203 78.03623047 19.5 78.125 Z " fill="#BA5ABA" transform="translate(167.5,155.875)"/>
<path d="M0 0 C2.22972273 0.11465421 4.45878753 0.24214766 6.6875 0.375 C7.92886719 0.44460937 9.17023438 0.51421875 10.44921875 0.5859375 C13.74104938 0.96980334 16.08553327 1.45612033 19 3 C19.99 4.485 19.99 4.485 21 6 C21.33 4.35 21.66 2.7 22 1 C28.27 1 34.54 1 41 1 C41.495 3.475 41.495 3.475 42 6 C40.02 6.99 40.02 6.99 38 8 C38.66 8 39.32 8 40 8 C40.81497964 12.65702651 41.52171823 17.29689596 42 22 C41 23 41 23 39.14233398 23.11352539 C37.95619507 23.10567017 37.95619507 23.10567017 36.74609375 23.09765625 C35.89208984 23.09443359 35.03808594 23.09121094 34.15820312 23.08789062 C33.26037109 23.07951172 32.36253906 23.07113281 31.4375 23.0625 C30.53580078 23.05798828 29.63410156 23.05347656 28.70507812 23.04882812 C26.46998686 23.03700225 24.23502563 23.0205222 22 23 C21.505 20.525 21.505 20.525 21 18 C20.319375 18.804375 19.63875 19.60875 18.9375 20.4375 C13.92649435 24.75354866 6.28865843 23.91199079 0 24 C-0.90901939 20.95157135 -1.06173367 18.40338364 -0.87890625 15.234375 C-0.83056641 14.34492188 -0.78222656 13.45546875 -0.73242188 12.5390625 C-0.67634766 11.61867187 -0.62027344 10.69828125 -0.5625 9.75 C-0.48418945 8.34621094 -0.48418945 8.34621094 -0.40429688 6.9140625 C-0.27493175 4.60901113 -0.13997966 2.30442711 0 0 Z M7 7 C7 9.97 7 12.94 7 16 C9.41645782 16.16687448 9.41645782 16.16687448 12 16 C12.66 15.34 13.32 14.68 14 14 C13.67801034 10.90073181 13.67801034 10.90073181 13 8 C10.03 7.505 10.03 7.505 7 7 Z M30 15 C30 15.66 30 16.32 30 17 C34.455 16.505 34.455 16.505 39 16 C39 15.67 39 15.34 39 15 C36.03 15 33.06 15 30 15 Z " fill="#C245BB" transform="translate(429,178)"/>
<path d="M0 0 C6.03225939 -0.09899561 12.06404427 -0.17152907 18.09692383 -0.21972656 C20.14843993 -0.23982199 22.19989889 -0.26710324 24.2512207 -0.30175781 C27.20278025 -0.35036669 30.15358148 -0.37298952 33.10546875 -0.390625 C34.02023483 -0.41127014 34.93500092 -0.43191528 35.87748718 -0.45318604 C39.69523508 -0.45452643 42.51301539 -0.19431539 46.08129883 1.22949219 C49.35114746 5.95098885 48.66931058 11.12559627 48.59375 16.71875 C48.59379028 17.96877808 48.59383057 19.21880615 48.59387207 20.50671387 C48.58850903 23.15036423 48.57355857 25.79180621 48.54199219 28.43505859 C48.50231325 31.81804425 48.49794745 35.19991753 48.50545502 38.58309174 C48.50926769 41.81590477 48.48843961 45.04850722 48.46875 48.28125 C48.46844788 50.10166809 48.46844788 50.10166809 48.46813965 51.9588623 C48.45222778 53.08683228 48.43631592 54.21480225 48.41992188 55.37695312 C48.41150269 56.36860474 48.4030835 57.36025635 48.39440918 58.38195801 C47.93902615 61.4047373 47.1151666 62.81894136 45 65 C44.34 65 43.68 65 43 65 C42.505 63.02 42.505 63.02 42 61 C42.66 61 43.32 61 44 61 C44 59.02 44 57.04 44 55 C42.96125732 55.07726318 41.92251465 55.15452637 40.85229492 55.23413086 C25.99062633 56.23017426 11.19376273 55.90205166 -3.6875 55.5625 C-6.25063792 55.50913171 -8.81378903 55.45639304 -11.37695312 55.40429688 C-17.5848059 55.27677564 -23.79245175 55.14153641 -30 55 C-29.67 53.68 -29.34 52.36 -29 51 C-4.91 51 19.18 51 44 51 C44 35.82 44 20.64 44 5 C29.15 4.505 29.15 4.505 14 4 C14 3.67 14 3.34 14 3 C18.95 2.67 23.9 2.34 29 2 C19.43 1.67 9.86 1.34 0 1 C0 0.67 0 0.34 0 0 Z " fill="#D5A1D5" transform="translate(187,168)"/>
<path d="M0 0 C0 1.66666667 0 3.33333333 0 5 C3.63 5 7.26 5 11 5 C10.01 5.33 9.02 5.66 8 6 C7.97101184 9.93748458 7.95320536 13.87494179 7.9375 17.8125 C7.92912109 18.93205078 7.92074219 20.05160156 7.91210938 21.20507812 C7.90888672 22.27822266 7.90566406 23.35136719 7.90234375 24.45703125 C7.89710693 25.44678955 7.89187012 26.43654785 7.88647461 27.45629883 C7.88930041 30.12392734 7.88930041 30.12392734 9 33 C11.88897224 34.44448612 14.42490895 34.16482861 17.65283203 34.20532227 C18.33587402 34.21522186 19.01891602 34.22512146 19.72265625 34.23532104 C21.98433953 34.26695309 24.24604382 34.29170011 26.5078125 34.31640625 C28.07437695 34.33697431 29.64093583 34.35797075 31.20748901 34.37937927 C35.33383682 34.43461522 39.46023483 34.48401775 43.58666992 34.53222656 C47.79610674 34.58243048 52.0054705 34.63812233 56.21484375 34.69335938 C64.47650076 34.80095958 72.73821882 34.90240039 81 35 C81 35.99 81 36.98 81 38 C68.625 38.495 68.625 38.495 56 39 C58.47635534 43.1480261 58.47635534 43.1480261 61.6875 43.75 C62.450625 43.8325 63.21375 43.915 64 44 C64.33 44.99 64.66 45.98 65 47 C64.34 47.99 63.68 48.98 63 50 C60.16272675 50.26667539 57.54616955 50.34791234 54.7109375 50.29296875 C53.89251373 50.28872391 53.07408997 50.28447906 52.23086548 50.28010559 C49.61191164 50.26328679 46.99372198 50.22562974 44.375 50.1875 C42.6015736 50.17245726 40.82813516 50.15876814 39.0546875 50.14648438 C34.7028297 50.11337292 30.35154449 50.06156952 26 50 C24.875 46.25 24.875 46.25 26 44 C26.99 43.690625 27.98 43.38125 29 43.0625 C30.485 42.5365625 30.485 42.5365625 32 42 C32.33 41.01 32.66 40.02 33 39 C32.29915283 38.99589111 31.59830566 38.99178223 30.8762207 38.98754883 C27.68746795 38.95456628 24.50061395 38.88391668 21.3125 38.8125 C20.20970703 38.80669922 19.10691406 38.80089844 17.97070312 38.79492188 C13.30333558 38.6680146 9.92082714 38.50064388 5.78125 36.25 C2.95571941 31.09464595 3.21667745 25.97436094 3.1875 20.1875 C3.14979492 18.43276367 3.14979492 18.43276367 3.11132812 16.64257812 C3.05252818 13.7613807 3.01619468 10.88170017 3 8 C0.03 7.505 0.03 7.505 -3 7 C-2.625 4.0625 -2.625 4.0625 -2 1 C-1.34 0.67 -0.68 0.34 0 0 Z M38 38 C37.01 40.97 36.02 43.94 35 47 C41.6 47 48.2 47 55 47 C54.05685064 43.22740255 53.43767489 40.98166128 51 38 C47.80624623 37.39442058 47.80624623 37.39442058 44.3125 37.6875 C43.13300781 37.73261719 41.95351562 37.77773437 40.73828125 37.82421875 C39.38283203 37.91123047 39.38283203 37.91123047 38 38 Z " fill="#B969BA" transform="translate(149,196)"/>
<path d="M0 0 C3.6578218 2.03993908 5.66946174 3.50419262 8 7 C8.69920885 11.79689791 8.71482085 15.77459282 6.25 20 C3.44351548 22.49465291 1.39890682 23.91128884 -2.40234375 24.15234375 C-6.68498411 23.78940813 -9.40964884 23.38553545 -13.0625 21 C-15.62135815 17.03789707 -16.29865605 13.69316647 -16 9 C-14.44446848 5.23397633 -12.43685584 3.1480349 -9 1 C-5.64870516 -0.11709828 -3.51689744 -0.34479387 0 0 Z M-6 7 C-8.36692966 9.84826598 -8.36692966 9.84826598 -7.625 13.1875 C-7.41875 14.115625 -7.2125 15.04375 -7 16 C-4.65466049 16.76956136 -4.65466049 16.76956136 -2 17 C0 16 0 16 1 14 C0.75546876 10.65807308 0.39456443 9.39456443 -2 7 C-3.32 7 -4.64 7 -6 7 Z " fill="#C460BF" transform="translate(419,178)"/>
<path d="M0 0 C5.61 0 11.22 0 17 0 C16.67 1.32 16.34 2.64 16 4 C13.03 4 10.06 4 7 4 C7 4.66 7 5.32 7 6 C10.3 6 13.6 6 17 6 C17.81497964 10.65702651 18.52171823 15.29689596 19 20 C18 21 18 21 16.23413086 21.11352539 C15.48526611 21.10828857 14.73640137 21.10305176 13.96484375 21.09765625 C12.87224243 21.09390991 12.87224243 21.09390991 11.75756836 21.09008789 C10.8269458 21.08098389 9.89632324 21.07187988 8.9375 21.0625 C4.5134375 21.0315625 4.5134375 21.0315625 0 21 C0 14.07 0 7.14 0 0 Z M7 13 C7 13.66 7 14.32 7 15 C11.455 14.505 11.455 14.505 16 14 C16 13.67 16 13.34 16 13 C13.03 13 10.06 13 7 13 Z " fill="#BC34B6" transform="translate(452,180)"/>
<path d="M0 0 C0.70125 0.556875 1.4025 1.11375 2.125 1.6875 C2.125 4.6875 2.125 4.6875 0.5 6.4375 C-2.65014641 8.09547179 -4.49525695 7.53243576 -7.875 6.6875 C-10.18171915 9.40299154 -10.18171915 9.40299154 -9.5 11.875 C-9.29375 12.473125 -9.0875 13.07125 -8.875 13.6875 C-5.82236336 14.66870464 -3.92763664 14.66870464 -0.875 13.6875 C-0.875 14.3475 -0.875 15.0075 -0.875 15.6875 C0.115 16.0175 1.105 16.3475 2.125 16.6875 C2.125 18.0075 2.125 19.3275 2.125 20.6875 C-3.26876532 21.99507947 -7.95341485 22.4488828 -13.1875 20.375 C-15.875 18.6875 -15.875 18.6875 -17.875 15.6875 C-18.6375943 11.03212779 -18.26895811 7.49000726 -16.1875 3.25 C-11.68564452 -1.73854255 -6.15980537 -2.81208506 0 0 Z " fill="#CA63C4" transform="translate(401.875,179.3125)"/>
<path d="M0 0 C0.33 0.66 0.66 1.32 1 2 C-0.28965176 3.37562854 -1.62689293 4.70766393 -3 6 C-3.66 6 -4.32 6 -5 6 C-5.33425735 8.37374861 -5.33425735 8.37374861 -5 11 C-4.34 11.495 -3.68 11.99 -3 12.5 C-2.34 12.995 -1.68 13.49 -1 14 C-0.75 16.6875 -0.75 16.6875 -1 19 C-3.125 19.75 -3.125 19.75 -6 20 C-10.29959415 17.67105317 -13.92130913 14.80308872 -17 11 C-17.3125 7.6875 -17.3125 7.6875 -17 5 C-17.66 4.67 -18.32 4.34 -19 4 C-15.4570887 1.87425322 -12.05515137 1.52566777 -8 1 C-5.29120665 -0.35439668 -2.99066732 -0.06501451 0 0 Z " fill="#FBFAF9" transform="translate(186,190)"/>
<path d="M0 0 C2.375 1.5 2.375 1.5 4 3 C-0.49656104 5.24828052 -4.07872966 5.16682272 -9 5 C-9 9.29 -9 13.58 -9 18 C-5.04 17.67 -1.08 17.34 3 17 C3.33 15.68 3.66 14.36 4 13 C4.66 13 5.32 13 6 13 C6 14.65 6 16.3 6 18 C5.34 18 4.68 18 4 18 C4 18.66 4 19.32 4 20 C1.39820337 21.30089831 -0.5969188 21.16840078 -3.5 21.1875 C-4.4796875 21.20167969 -5.459375 21.21585938 -6.46875 21.23046875 C-9 21 -9 21 -11 19 C-13.06874034 18.3574765 -13.06874034 18.3574765 -15 18 C-16.43639844 10.05654358 -16.43639844 10.05654358 -14.8125 6.125 C-10.5685344 1.14931619 -6.5658438 -0.53598725 0 0 Z " fill="#CE25C7" transform="translate(419,178)"/>
<path d="M0 0 C1.2065625 0.0309375 1.2065625 0.0309375 2.4375 0.0625 C1.1175 0.3925 -0.2025 0.7225 -1.5625 1.0625 C-1.5625 1.7225 -1.5625 2.3825 -1.5625 3.0625 C0.7475 3.0625 3.0575 3.0625 5.4375 3.0625 C5.4375 5.0425 5.4375 7.0225 5.4375 9.0625 C7.7475 9.0625 10.0575 9.0625 12.4375 9.0625 C12.4375 9.3925 12.4375 9.7225 12.4375 10.0625 C10.7875 10.0625 9.1375 10.0625 7.4375 10.0625 C7.4375 12.3725 7.4375 14.6825 7.4375 17.0625 C4.15230525 18.15756492 1.70086585 18.16210608 -1.75 18.125 C-3.38001953 18.11146484 -3.38001953 18.11146484 -5.04296875 18.09765625 C-5.87441406 18.08605469 -6.70585937 18.07445312 -7.5625 18.0625 C-7.5625 16.7425 -7.5625 15.4225 -7.5625 14.0625 C-6.2425 13.7325 -4.9225 13.4025 -3.5625 13.0625 C-3.57410156 12.20785156 -3.58570313 11.35320312 -3.59765625 10.47265625 C-3.60667969 9.36792969 -3.61570313 8.26320312 -3.625 7.125 C-3.63660156 6.02285156 -3.64820313 4.92070312 -3.66015625 3.78515625 C-3.52747618 0.086036 -3.52747618 0.086036 0 0 Z " fill="#A430AD" transform="translate(156.5625,183.9375)"/>
<path d="M0 0 C3.375 1.0625 3.375 1.0625 5.375 2.625 C6.86846826 6.26532888 6.39294828 9.31676844 5.375 13.0625 C4.25 15.0625 4.25 15.0625 2.375 16.0625 C-1.0625 16.5625 -1.0625 16.5625 -4.625 16.0625 C-7.5486459 13.5136805 -8.47409176 11.86734394 -9.1875 8.0625 C-8.16376258 2.6025671 -5.56370371 0.09592593 0 0 Z M-2.625 5.0625 C-2.955 6.7125 -3.285 8.3625 -3.625 10.0625 C-1.645 11.0525 -1.645 11.0525 0.375 12.0625 C1.035 10.4125 1.695 8.7625 2.375 7.0625 C1.715 6.4025 1.055 5.7425 0.375 5.0625 C-0.615 5.0625 -1.605 5.0625 -2.625 5.0625 Z " fill="#C056BE" transform="translate(356.625,218.9375)"/>
<path d="M0 0 C8.3984375 -0.29296875 8.3984375 -0.29296875 11 0 C13.20106023 3.30159034 13.18529289 4.20149568 13 8 C13 9.32 13 10.64 13 12 C12.67 12.99 12.34 13.98 12 15 C9.13275314 14.42655063 8.1385485 14.1385485 6 12 C5.01 13.485 5.01 13.485 4 15 C2.68 14.67 1.36 14.34 0 14 C0 9.38 0 4.76 0 0 Z M5 4 C5 4.66 5 5.32 5 6 C5.99 6 6.98 6 8 6 C8 5.34 8 4.68 8 4 C7.01 4 6.02 4 5 4 Z " fill="#C055BE" transform="translate(264,220)"/>
<path d="M0 0 C1.134375 0.020625 2.26875 0.04125 3.4375 0.0625 C3.7675 2.7025 4.0975 5.3425 4.4375 8.0625 C1.50925348 9.03858217 -0.51863276 9.14476668 -3.5625 9.0625 C-3.8925 11.0425 -4.2225 13.0225 -4.5625 15.0625 C-7.2025 15.0625 -9.8425 15.0625 -12.5625 15.0625 C-12.5625 13.0825 -12.5625 11.1025 -12.5625 9.0625 C-14.8725 9.0625 -17.1825 9.0625 -19.5625 9.0625 C-19.5625 8.4025 -19.5625 7.7425 -19.5625 7.0625 C-18.44875 6.959375 -17.335 6.85625 -16.1875 6.75 C-14.99125 6.523125 -13.795 6.29625 -12.5625 6.0625 C-11.9025 5.0725 -11.2425 4.0825 -10.5625 3.0625 C-10.5625 4.3825 -10.5625 5.7025 -10.5625 7.0625 C-8.5825 7.0625 -6.6025 7.0625 -4.5625 7.0625 C-4.583125 6.093125 -4.60375 5.12375 -4.625 4.125 C-4.53542298 -0.264274 -4.48106193 0.07861512 0 0 Z " fill="#B335B6" transform="translate(174.5625,177.9375)"/>
<path d="M0 0 C3.3 0 6.6 0 10 0 C10 2.33342634 9.9861025 4.66707988 9.9375 7 C9.991061 9.5709279 10.36288445 11.54255429 11 14 C10 15 10 15 7.71484375 15.09765625 C6.34005859 15.08025391 6.34005859 15.08025391 4.9375 15.0625 C4.01839844 15.05347656 3.09929687 15.04445312 2.15234375 15.03515625 C1.44207031 15.02355469 0.73179687 15.01195312 0 15 C-1.0024305 9.65370398 -0.84888195 5.37625234 0 0 Z " fill="#C558BF" transform="translate(284,220)"/>
<path d="M0 0 C1.23556641 0.01740234 1.23556641 0.01740234 2.49609375 0.03515625 C3.32238281 0.04417969 4.14867187 0.05320313 5 0.0625 C5.63808594 0.07410156 6.27617187 0.08570313 6.93359375 0.09765625 C7.26359375 1.08765625 7.59359375 2.07765625 7.93359375 3.09765625 C6.94359375 3.75765625 5.95359375 4.41765625 4.93359375 5.09765625 C5.92359375 5.75765625 6.91359375 6.41765625 7.93359375 7.09765625 C8.24609375 10.09765625 8.24609375 10.09765625 7.93359375 13.09765625 C5.32654477 15.70470523 3.46021134 15.33670958 -0.09375 15.36328125 C-2.06640625 15.09765625 -2.06640625 15.09765625 -5.06640625 13.09765625 C-5.06640625 12.10765625 -5.06640625 11.11765625 -5.06640625 10.09765625 C-2.06640625 9.09765625 -2.06640625 9.09765625 -1.06640625 9.09765625 C-1.58203125 8.70578125 -2.09765625 8.31390625 -2.62890625 7.91015625 C-4.06640625 6.09765625 -4.06640625 6.09765625 -3.81640625 3.47265625 C-2.76098256 0.13048122 -2.76098256 0.13048122 0 0 Z " fill="#C463BD" transform="translate(394.06640625,219.90234375)"/>
<path d="M0 0 C4.12945075 0.54180737 6.50416914 1.79358418 9.75 4.375 C10.52859375 4.98085937 11.3071875 5.58671875 12.109375 6.2109375 C14 8 14 8 15 11 C13.61536194 12.32430525 12.2167677 13.63402803 10.8125 14.9375 C10.03519531 15.66839844 9.25789062 16.39929688 8.45703125 17.15234375 C5.86877354 19.09868063 4.18140701 19.64399886 1 20 C0.67 18.68 0.34 17.36 0 16 C2.31 14.02 4.62 12.04 7 10 C5.2675 8.9171875 5.2675 8.9171875 3.5 7.8125 C1.55859375 6.4453125 1.55859375 6.4453125 0 5 C-0.4375 2.1875 -0.4375 2.1875 0 0 Z " fill="#BE50BD" transform="translate(204,189)"/>
<path d="M0 0 C6.03225939 -0.09899561 12.06404427 -0.17152907 18.09692383 -0.21972656 C20.14843993 -0.23982199 22.19989889 -0.26710324 24.2512207 -0.30175781 C27.20278025 -0.35036669 30.15358148 -0.37298952 33.10546875 -0.390625 C34.02023483 -0.41127014 34.93500092 -0.43191528 35.87748718 -0.45318604 C40.03962337 -0.45464735 42.41377649 -0.33556754 46.08789062 1.76757812 C48.15381716 4.17958428 48.60602726 5.00088041 48.48828125 8.109375 C48.47216797 8.86347656 48.45605469 9.61757812 48.43945312 10.39453125 C48.37661133 11.56048828 48.37661133 11.56048828 48.3125 12.75 C48.28994141 13.54277344 48.26738281 14.33554688 48.24414062 15.15234375 C48.18540471 17.1023762 48.09572654 19.05143312 48 21 C47.67 21 47.34 21 47 21 C46.95101562 20.24074219 46.90203125 19.48148438 46.8515625 18.69921875 C46.77679688 17.70535156 46.70203125 16.71148437 46.625 15.6875 C46.52058594 14.20830078 46.52058594 14.20830078 46.4140625 12.69921875 C46.16134528 9.78471567 46.16134528 9.78471567 44 7 C44 6.34 44 5.68 44 5 C29.15 4.505 29.15 4.505 14 4 C14 3.67 14 3.34 14 3 C18.95 2.67 23.9 2.34 29 2 C19.43 1.67 9.86 1.34 0 1 C0 0.67 0 0.34 0 0 Z " fill="#D29DD6" transform="translate(187,168)"/>
<path d="M0 0 C11.625 -0.25 11.625 -0.25 15 2 C15.6875 4.625 15.6875 4.625 16 7 C15.01 6.67 14.02 6.34 13 6 C13 5.01 13 4.02 13 3 C10.03 3 7.06 3 4 3 C4 6.96 4 10.92 4 15 C8.64586892 14.51515724 8.64586892 14.51515724 13 13 C13.65555119 10.47266765 13.65555119 10.47266765 14 8 C14.99 8.33 15.98 8.66 17 9 C17 10.65 17 12.3 17 14 C15.02 14.99 15.02 14.99 13 16 C13 16.66 13 17.32 13 18 C8.71 18 4.42 18 0 18 C0 12.06 0 6.12 0 0 Z " fill="#D025C8" transform="translate(431,181)"/>
<path d="M0 0 C5 1 5 1 6.8125 3.5625 C7.204375 4.366875 7.59625 5.17125 8 6 C8.33 4.02 8.66 2.04 9 0 C10.32 0.33 11.64 0.66 13 1 C13.02705729 2.77074917 13.04642195 4.54161711 13.0625 6.3125 C13.07410156 7.29863281 13.08570313 8.28476563 13.09765625 9.30078125 C13 12 13 12 12 15 C8.63279613 13.60667426 7.0140476 12.0210714 5 9 C4.34 10.98 3.68 12.96 3 15 C2.01 14.67 1.02 14.34 0 14 C0 9.38 0 4.76 0 0 Z " fill="#C460BF" transform="translate(370,220)"/>
<path d="M0 0 C3 1 3 1 4.1328125 2.63671875 C6.13103025 6.76689322 7.53708186 10.37081861 8 15 C6.68 15.33 5.36 15.66 4 16 C3.67 15.34 3.34 14.68 3 14 C0.47266765 13.34444881 0.47266765 13.34444881 -2 13 C-2.33 13.99 -2.66 14.98 -3 16 C-4.32 15.67 -5.64 15.34 -7 15 C-5.34292168 9.35086937 -3.52237988 4.73699363 0 0 Z " fill="#BB44B6" transform="translate(307,219)"/>
<path d="M0 0 C0.33 0 0.66 0 1 0 C1.86951247 8.81934076 2.10883807 17.5807637 2.125 26.4375 C2.12951172 27.46746094 2.13402344 28.49742187 2.13867188 29.55859375 C2.12840761 34.81389646 1.91747619 39.82281292 1 45 C-3.02951103 37.67547628 -2.18214949 28.64347142 -2.1875 20.5 C-2.19974609 19.51902344 -2.21199219 18.53804687 -2.22460938 17.52734375 C-2.23690765 11.37000868 -1.5576924 5.95986659 0 0 Z " fill="#B778B7" transform="translate(233,175)"/>
<path d="M0 0 C0.66 0.33 1.32 0.66 2 1 C2 1.99 2 2.98 2 4 C-1.05263664 4.98120464 -2.94736336 4.98120464 -6 4 C-6 5.98 -6 7.96 -6 10 C-2.535 9.505 -2.535 9.505 1 9 C1.625 10.875 1.625 10.875 2 13 C0 15 0 15 -3.375 15.375 C-7 15 -7 15 -9.4375 13.4375 C-11.58879747 10.08147594 -11.48947291 7.91578329 -11 4 C-8.82576896 -1.29968815 -5.04347685 -0.40027594 0 0 Z " fill="#C665C0" transform="translate(256,220)"/>
<path d="M0 0 C2.5 0.125 2.5 0.125 3.5 1.125 C3.01601284 6.64245357 1.9315622 11.7805011 0.5 17.125 C-5.65234375 17.22265625 -5.65234375 17.22265625 -7.5 17.125 C-8.5 16.125 -8.5 16.125 -8.5625 13.0625 C-8.541875 12.093125 -8.52125 11.12375 -8.5 10.125 C-6.52 9.465 -4.54 8.805 -2.5 8.125 C-2.83 7.795 -3.16 7.465 -3.5 7.125 C-3.625 4.125 -3.625 4.125 -3.5 1.125 C-2.5 0.125 -2.5 0.125 0 0 Z " fill="#BD54B7" transform="translate(167.5,155.875)"/>
<path d="M0 0 C0.66 1.32 1.32 2.64 2 4 C-0.31 4.33 -2.62 4.66 -5 5 C-5.33 6.32 -5.66 7.64 -6 9 C-3.10765685 9.82638376 -1.11257569 10 2 10 C2 11.32 2 12.64 2 14 C-0.625 15.1875 -0.625 15.1875 -4 16 C-8.96875 14.03125 -8.96875 14.03125 -11 12 C-11.45070423 5.12676056 -11.45070423 5.12676056 -10 1.5 C-6.79687946 -0.9023404 -3.92653359 -0.25747761 0 0 Z " fill="#BB55B6" transform="translate(467,220)"/>
<path d="M0 0 C15.73443478 -0.08737982 31.45655039 0.18923944 47.1875 0.5 C49.70247077 0.54834298 52.21744472 0.59652117 54.73242188 0.64453125 C60.8216524 0.76112498 66.91084089 0.8797375 73 1 C73 1.33 73 1.66 73 2 C48.66150281 2.66424294 24.34859787 3.17730886 0 3 C0 2.01 0 1.02 0 0 Z " fill="#B35EB4" transform="translate(157,220)"/>
<path d="M0 0 C0.721875 0.474375 1.44375 0.94875 2.1875 1.4375 C4.89475226 2.94152903 6.96194275 3.56599182 10 4 C10.33 4.99 10.66 5.98 11 7 C10.01 8.485 10.01 8.485 9 10 C6.015625 10.328125 6.015625 10.328125 2.25 10.25 C1.59056396 10.23904297 0.93112793 10.22808594 0.25170898 10.21679688 C-6.51409851 10.06871687 -13.25877984 9.58167693 -20 9 C-15.04400155 5.69600103 -11.01579556 5.90765495 -5.1875 6.4375 C-3.44533203 6.59025391 -3.44533203 6.59025391 -1.66796875 6.74609375 C-0.78753906 6.82988281 0.09289062 6.91367188 1 7 C0.67 4.69 0.34 2.38 0 0 Z " fill="#A343A6" transform="translate(203,236)"/>
<path d="M0 0 C0 1.66666667 0 3.33333333 0 5 C3.63 5 7.26 5 11 5 C10.01 5.33 9.02 5.66 8 6 C8.01160156 6.81984375 8.02320313 7.6396875 8.03515625 8.484375 C8.04417969 9.56203125 8.05320313 10.6396875 8.0625 11.75 C8.07410156 12.81734375 8.08570313 13.8846875 8.09765625 14.984375 C8.01380917 17.57357272 7.63868996 19.52507639 7 22 C6.93375493 23.74886981 6.91447405 25.50002748 6.9375 27.25 C6.95103516 28.58804688 6.95103516 28.58804688 6.96484375 29.953125 C6.97644531 30.62859375 6.98804688 31.3040625 7 32 C5.515 32.495 5.515 32.495 4 33 C3.67 24.75 3.34 16.5 3 8 C0.03 7.505 0.03 7.505 -3 7 C-2.625 4.0625 -2.625 4.0625 -2 1 C-1.34 0.67 -0.68 0.34 0 0 Z " fill="#AB54AA" transform="translate(149,196)"/>
<path d="M0 0 C3 1 3 1 4.97265625 4.421875 C5.67953009 5.8595845 6.37573794 7.3025757 7.0625 8.75 C7.41376953 9.46671875 7.76503906 10.1834375 8.12695312 10.921875 C9.89768115 14.5637504 11.56072538 18.21165024 13 22 C11.35 22.33 9.7 22.66 8 23 C3.9694191 16.11774328 -0.0233181 9.05762567 -1 1 C-0.67 0.67 -0.34 0.34 0 0 Z " fill="#C565C1" transform="translate(189,188)"/>
<path d="M0 0 C3.3 0 6.6 0 10 0 C10.66 1.32 11.32 2.64 12 4 C10.68 4.33 9.36 4.66 8 5 C8 8.3 8 11.6 8 15 C6.68 15.33 5.36 15.66 4 16 C3 15 3 15 2.90234375 12.93359375 C2.91974609 11.69802734 2.91974609 11.69802734 2.9375 10.4375 C2.94652344 9.61121094 2.95554687 8.78492188 2.96484375 7.93359375 C2.97644531 7.29550781 2.98804688 6.65742188 3 6 C1.68 5.67 0.36 5.34 -1 5 C-0.67 3.35 -0.34 1.7 0 0 Z " fill="#CE7AC7" transform="translate(319,219)"/>
<path d="M0 0 C2.05078125 0.03255208 4.1015625 0.06510417 6.15234375 0.09765625 C8.00298694 3.22061663 8.44590529 5.47706393 8.15234375 9.09765625 C6.57882494 10.67117506 4.82279884 10.48225774 2.65234375 10.72265625 C1.83765625 10.81804687 1.02296875 10.9134375 0.18359375 11.01171875 C-0.48671875 11.04007813 -1.15703125 11.0684375 -1.84765625 11.09765625 C-2.84765625 10.09765625 -2.84765625 10.09765625 -2.98046875 8.06640625 C-2.97789062 7.25171875 -2.9753125 6.43703125 -2.97265625 5.59765625 C-2.97523438 4.78296875 -2.9778125 3.96828125 -2.98046875 3.12890625 C-2.80874235 0.50250245 -2.63734263 0.13939443 0 0 Z " fill="#D492D2" transform="translate(151.84765625,172.90234375)"/>
<path d="M0 0 C4.95 0 9.9 0 15 0 C15 0.99 15 1.98 15 3 C10.545 3.495 10.545 3.495 6 4 C5.67 4.99 5.34 5.98 5 7 C4.01 7 3.02 7 2 7 C2 7.99 2 8.98 2 10 C2.99 10 3.98 10 5 10 C5.33 11.98 5.66 13.96 6 16 C4.35 16.33 2.7 16.66 1 17 C-0.34083354 11.30937575 -0.06402191 5.82599424 0 0 Z " fill="#D126C8" transform="translate(453,181)"/>
<path d="M0 0 C6.93 0.495 6.93 0.495 14 1 C14 1.66 14 2.32 14 3 C10.04 3 6.08 3 2 3 C2 8.94 2 14.88 2 21 C6.29 21 10.58 21 15 21 C15 21.66 15 22.32 15 23 C10.05 23.33 5.1 23.66 0 24 C-0.85205807 20.5917677 -1.07451001 18.62484016 -0.87890625 15.234375 C-0.83056641 14.34492188 -0.78222656 13.45546875 -0.73242188 12.5390625 C-0.67634766 11.61867187 -0.62027344 10.69828125 -0.5625 9.75 C-0.48418945 8.34621094 -0.48418945 8.34621094 -0.40429688 6.9140625 C-0.27493479 4.60906539 -0.13818407 2.30448506 0 0 Z " fill="#C25ABC" transform="translate(429,178)"/>
<path d="M0 0 C0 1.65 0 3.3 0 5 C-3.75 6.125 -3.75 6.125 -6 5 C-6 7.31 -6 9.62 -6 12 C-8.33294775 12.04241723 -10.66702567 12.04092937 -13 12 C-14 11 -14 11 -14.0625 7.4375 C-14.041875 6.303125 -14.02125 5.16875 -14 4 C-11.36 4 -8.72 4 -6 4 C-6 2.68 -6 1.36 -6 0 C-3.50907189 -1.24546405 -2.58919267 -0.7767578 0 0 Z " fill="#BD48B8" transform="translate(159,159)"/>
<path d="M0 0 C0.33 1.32 0.66 2.64 1 4 C1.99 4 2.98 4 4 4 C4.33 3.34 4.66 2.68 5 2 C5 4.64 5 7.28 5 10 C10.94 9.505 10.94 9.505 17 9 C17.33 7.68 17.66 6.36 18 5 C18.66 5 19.32 5 20 5 C20 6.65 20 8.3 20 10 C19.34 10 18.68 10 18 10 C18 10.66 18 11.32 18 12 C13.28424878 14.35787561 6.74710851 13.47959842 1.8125 12.125 C-0.87205059 8.97759586 -0.37666054 6.09387759 -0.17578125 2.08203125 C-0.08876953 1.05142578 -0.08876953 1.05142578 0 0 Z " fill="#CB26C1" transform="translate(405,186)"/>
<path d="M0 0 C1.32 0 2.64 0 4 0 C4.33 3.63 4.66 7.26 5 11 C6.98 11 8.96 11 11 11 C10.67 12.32 10.34 13.64 10 15 C8.52093108 15.02689216 7.04172517 15.04634621 5.5625 15.0625 C4.32693359 15.07990234 4.32693359 15.07990234 3.06640625 15.09765625 C1 15 1 15 0 14 C-0.07271741 11.64686445 -0.08370868 9.29166332 -0.0625 6.9375 C-0.05347656 5.64714844 -0.04445313 4.35679687 -0.03515625 3.02734375 C-0.02355469 2.02832031 -0.01195312 1.02929688 0 0 Z " fill="#C261C2" transform="translate(421,220)"/>
<path d="M0 0 C1.65 0 3.3 0 5 0 C5.33 3.3 5.66 6.6 6 10 C8.97 10.495 8.97 10.495 12 11 C11.67 12.32 11.34 13.64 11 15 C9.52093108 15.02689216 8.04172517 15.04634621 6.5625 15.0625 C5.32693359 15.07990234 5.32693359 15.07990234 4.06640625 15.09765625 C2 15 2 15 1 14 C0.95319361 12.58410678 0.96248557 11.16616987 1 9.75 C1.04335981 6.35167528 0.85462973 3.31169021 0 0 Z " fill="#C15BBF" transform="translate(437,220)"/>
<path d="M0 0 C0.33 0 0.66 0 1 0 C1.12117187 0.78246094 1.24234375 1.56492188 1.3671875 2.37109375 C1.53476563 3.38300781 1.70234375 4.39492187 1.875 5.4375 C2.03742188 6.44683594 2.19984375 7.45617187 2.3671875 8.49609375 C2.57601562 9.32238281 2.78484375 10.14867187 3 11 C5.46120841 12.23060421 7.25776866 12.2057723 10.0078125 12.31640625 C10.99394531 12.35830078 11.98007813 12.40019531 12.99609375 12.44335938 C14.54490234 12.50233398 14.54490234 12.50233398 16.125 12.5625 C17.68541016 12.62727539 17.68541016 12.62727539 19.27734375 12.69335938 C21.85142528 12.7996288 24.42560508 12.90166583 27 13 C27.33 13.66 27.66 14.32 28 15 C19.09 15 10.18 15 1 15 C0.34 13.68 -0.32 12.36 -1 11 C-0.67 10.34 -0.34 9.68 0 9 C0.06950541 7.45976004 0.08452357 5.91665012 0.0625 4.375 C0.05347656 3.55773437 0.04445312 2.74046875 0.03515625 1.8984375 C0.02355469 1.27195313 0.01195312 0.64546875 0 0 Z " fill="#AF60AF" transform="translate(155,218)"/>
<path d="M0 0 C1.04218885 3.38711375 1 6.47649693 1 10 C2.15479103 11.38600493 2.15479103 11.38600493 5.3125 11.0625 C6.529375 11.041875 7.74625 11.02125 9 11 C10.32 11 11.64 11 13 11 C13.33 12.32 13.66 13.64 14 15 C12.25008666 15.02715383 10.50005055 15.04646551 8.75 15.0625 C7.28820312 15.07990234 7.28820312 15.07990234 5.796875 15.09765625 C3.34241322 15.01195577 1.33831086 14.70706066 -1 14 C-3.43326039 5.96498906 -3.43326039 5.96498906 -1.625 1.9375 C-1.08875 1.298125 -0.5525 0.65875 0 0 Z " fill="#CE28C6" transform="translate(389,184)"/>
<path d="M0 0 C0.33 2.97 0.66 5.94 1 9 C-2 9 -5 9 -8 9 C-8 6.36 -8 3.72 -8 1 C-5.29120665 -0.35439668 -2.99066732 -0.06501451 0 0 Z " fill="#CC2AC6" transform="translate(169,176)"/>
<path d="M0 0 C6.27 0 12.54 0 19 0 C19.33 1.65 19.66 3.3 20 5 C19 6 19 6 16.49609375 6.09765625 C14.98208984 6.08025391 14.98208984 6.08025391 13.4375 6.0625 C12.42558594 6.05347656 11.41367187 6.04445312 10.37109375 6.03515625 C9.19740234 6.01775391 9.19740234 6.01775391 8 6 C8 5.67 8 5.34 8 5 C12.455 4.505 12.455 4.505 17 4 C17.33 3.01 17.66 2.02 18 1 C12.39 1 6.78 1 1 1 C1 7.93 1 14.86 1 22 C0.67 22 0.34 22 0 22 C-0.19872431 20.02192882 -0.38333034 18.04243817 -0.5625 16.0625 C-0.66691406 14.96035156 -0.77132813 13.85820312 -0.87890625 12.72265625 C-1 9 -1 9 0 0 Z " fill="#DB9DD9" transform="translate(451,179)"/>
<path d="M0 0 C0.66 0.33 1.32 0.66 2 1 C2 2.32 2 3.64 2 5 C5.465 4.505 5.465 4.505 9 4 C9.625 5.875 9.625 5.875 10 8 C8 10 8 10 4.5625 10.3125 C1 10 1 10 -0.9375 8.5 C-1.288125 8.005 -1.63875 7.51 -2 7 C-1.34 4.69 -0.68 2.38 0 0 Z " fill="#C05FC2" transform="translate(248,225)"/>
<path d="M0 0 C3.63 0.33 7.26 0.66 11 1 C11.33 2.32 11.66 3.64 12 5 C11.34 4.67 10.68 4.34 10 4 C9.67 4.66 9.34 5.32 9 6 C8.22914063 5.98839844 7.45828125 5.97679687 6.6640625 5.96484375 C5.66117187 5.95582031 4.65828125 5.94679687 3.625 5.9375 C2.12839844 5.92009766 2.12839844 5.92009766 0.6015625 5.90234375 C-1.98432453 5.81993398 -1.98432453 5.81993398 -4 7 C-3.67 5.68 -3.34 4.36 -3 3 C-2.01 3 -1.02 3 0 3 C0 2.01 0 1.02 0 0 Z " fill="#D349CB" transform="translate(458,185)"/>
<path d="M0 0 C9.9 0 19.8 0 30 0 C30.33 0.66 30.66 1.32 31 2 C20.51052868 2.82544266 10.49411854 3.08101063 0 2 C0 1.34 0 0.68 0 0 Z " fill="#8D4393" transform="translate(186,169)"/>
<path d="M0 0 C0.66 0.33 1.32 0.66 2 1 C2 5.62 2 10.24 2 15 C1.01 15.495 1.01 15.495 0 16 C-0.66 15.67 -1.32 15.34 -2 15 C-2 10.38 -2 5.76 -2 1 C-1.34 0.67 -0.68 0.34 0 0 Z " fill="#CB79C6" transform="translate(339,219)"/>
<path d="M0 0 C1.2065625 0.0309375 1.2065625 0.0309375 2.4375 0.0625 C1.1175 0.3925 -0.2025 0.7225 -1.5625 1.0625 C-1.5625 1.7225 -1.5625 2.3825 -1.5625 3.0625 C0.7475 3.0625 3.0575 3.0625 5.4375 3.0625 C5.4375 5.0425 5.4375 7.0225 5.4375 9.0625 C2.0625 9.1875 2.0625 9.1875 -1.5625 9.0625 C-3.5625 7.0625 -3.5625 7.0625 -3.75 4 C-3.50012994 0.08536902 -3.50012994 0.08536902 0 0 Z " fill="#D325CB" transform="translate(156.5625,183.9375)"/>
<path d="M0 0 C2.39652528 -0.08139142 4.79025436 -0.14067009 7.1875 -0.1875 C7.86103516 -0.21263672 8.53457031 -0.23777344 9.22851562 -0.26367188 C13.70864748 -0.32923478 16.39440999 0.33256351 20 3 C19.67 3.66 19.34 4.32 19 5 C18.67 4.67 18.34 4.34 18 4 C17.34 4.66 16.68 5.32 16 6 C15.80664062 5.35546875 15.61328125 4.7109375 15.4140625 4.046875 C14.11291753 1.65648799 14.11291753 1.65648799 10.9609375 1.390625 C9.18589844 1.32101563 9.18589844 1.32101563 7.375 1.25 C6.18648437 1.19328125 4.99796875 1.1365625 3.7734375 1.078125 C2.85820312 1.05234375 1.94296875 1.0265625 1 1 C0.01 3.97 -0.98 6.94 -2 10 C-2.33 9.01 -2.66 8.02 -3 7 C-3.66 7 -4.32 7 -5 7 C-4.67 5.02 -4.34 3.04 -4 1 C-3.01 1.33 -2.02 1.66 -1 2 C-0.67 1.34 -0.34 0.68 0 0 Z " fill="#D18CD0" transform="translate(186,233)"/>
<path d="M0 0 C2.33294775 -0.04241723 4.66702567 -0.04092937 7 0 C8 1 8 1 8.0625 3.5625 C8.041875 4.366875 8.02125 5.17125 8 6 C3.545 6.495 3.545 6.495 -1 7 C-0.67 4.69 -0.34 2.38 0 0 Z " fill="#942AA0" transform="translate(170,162)"/>
<path d="M0 0 C1.04449911 3.13349732 0.93423645 3.98968256 0 7 C-1.258125 7.04125 -2.51625 7.0825 -3.8125 7.125 C-4.52019531 7.14820313 -5.22789062 7.17140625 -5.95703125 7.1953125 C-8 7 -8 7 -11 5 C-11 4.01 -11 3.02 -11 2 C-7.06329512 0.68776504 -4.87511856 1.75703744 -1 3 C-0.67 2.01 -0.34 1.02 0 0 Z " fill="#C15DBB" transform="translate(400,228)"/>
<path d="M0 0 C3.4375 0.9375 3.4375 0.9375 5.375 2.6875 C6.60467908 5.29152628 6.67473981 7.09062226 6.4375 9.9375 C6.1075 8.6175 5.7775 7.2975 5.4375 5.9375 C4.7775 5.9375 4.1175 5.9375 3.4375 5.9375 C3.1075 7.5875 2.7775 9.2375 2.4375 10.9375 C1.7775 10.6075 1.1175 10.2775 0.4375 9.9375 C0.4375 8.6175 0.4375 7.2975 0.4375 5.9375 C-0.8825 5.9375 -2.2025 5.9375 -3.5625 5.9375 C-3.5625 5.2775 -3.5625 4.6175 -3.5625 3.9375 C-2.2425 3.6075 -0.9225 3.2775 0.4375 2.9375 C-0.325625 2.9375 -1.08875 2.9375 -1.875 2.9375 C-3.77083333 2.9375 -5.66666667 2.9375 -7.5625 2.9375 C-4.91606247 0.29106247 -3.82667781 -0.0671347 0 0 Z " fill="#D788D3" transform="translate(356.5625,219.0625)"/>
<path d="M0 0 C0 1.66666667 0 3.33333333 0 5 C3.63 5 7.26 5 11 5 C10.01 5.33 9.02 5.66 8 6 C8 9.96 8 13.92 8 18 C7.67 18 7.34 18 7 18 C6.9175 16.72125 6.835 15.4425 6.75 14.125 C6.43350711 10.85805819 6.43350711 10.85805819 4.25 8.5625 C1.84056747 7.96014187 -0.54965587 7.40839069 -3 7 C-2.625 4.0625 -2.625 4.0625 -2 1 C-1.34 0.67 -0.68 0.34 0 0 Z " fill="#D085CD" transform="translate(149,196)"/>
<path d="M0 0 C0.66 0.33 1.32 0.66 2 1 C2 1.66 2 2.32 2 3 C4.97 3 7.94 3 11 3 C10.67 4.32 10.34 5.64 10 7 C6.7 7 3.4 7 0 7 C-1.04449911 3.86650268 -0.93423645 3.01031744 0 0 Z " fill="#C264BE" transform="translate(284,228)"/>
<path d="M0 0 C1.051875 0.8353125 1.051875 0.8353125 2.125 1.6875 C2.125 4.6875 2.125 4.6875 0.5 6.4375 C-2.6560226 8.09856453 -4.46373269 7.42907985 -7.875 6.6875 C-8.865 7.1825 -8.865 7.1825 -9.875 7.6875 C-9.875 6.6975 -9.875 5.7075 -9.875 4.6875 C-7.235 4.6875 -4.595 4.6875 -1.875 4.6875 C-2.205 3.6975 -2.535 2.7075 -2.875 1.6875 C-3.6175 1.543125 -4.36 1.39875 -5.125 1.25 C-7.39527739 0.78562508 -9.63259479 0.26886431 -11.875 -0.3125 C-7.46341844 -1.78302719 -4.27588114 -1.9520327 0 0 Z " fill="#CD72C6" transform="translate(401.875,179.3125)"/>
<path d="M0 0 C1.134375 0.020625 2.26875 0.04125 3.4375 0.0625 C4.37173645 3.07281744 4.48199911 3.92900268 3.4375 7.0625 C1.1275 6.7325 -1.1825 6.4025 -3.5625 6.0625 C-3.94468767 4.40635343 -4.27645102 2.73792976 -4.5625 1.0625 C-3.5625 0.0625 -3.5625 0.0625 0 0 Z " fill="#C02FB9" transform="translate(153.5625,174.9375)"/>
<path d="M0 0 C2.60045875 2.3024119 3.84739183 4.49896677 5.1875 7.6875 C5.53167969 8.49574219 5.87585938 9.30398437 6.23046875 10.13671875 C6.48441406 10.75160156 6.73835937 11.36648437 7 12 C5.35 12.33 3.7 12.66 2 13 C0.57775885 9.01772477 -0.51064387 5.20846271 -1 1 C-0.67 0.67 -0.34 0.34 0 0 Z " fill="#BC56B5" transform="translate(195,198)"/>
<path d="M0 0 C1.32 0 2.64 0 4 0 C4.33 2.64 4.66 5.28 5 8 C1.37673261 9.2077558 0.35853631 8.54311128 -3 7 C-1.125 1.125 -1.125 1.125 0 0 Z " fill="#A144AB" transform="translate(174,178)"/>
<path d="M0 0 C5.49315371 0.61035041 5.49315371 0.61035041 7.6809082 2.29223633 C9.29556639 4.38265536 9.35191325 5.3985125 9.29296875 8.01171875 C9.28330078 8.76904297 9.27363281 9.52636719 9.26367188 10.30664062 C9.23853516 11.09232422 9.21339844 11.87800781 9.1875 12.6875 C9.17396484 13.48478516 9.16042969 14.28207031 9.14648438 15.10351562 C9.11117089 17.06929967 9.05736447 19.03473582 9 21 C8.67 21 8.34 21 8 21 C7.95101562 20.24074219 7.90203125 19.48148438 7.8515625 18.69921875 C7.77679688 17.70535156 7.70203125 16.71148437 7.625 15.6875 C7.55539063 14.70136719 7.48578125 13.71523437 7.4140625 12.69921875 C7.16134528 9.78471567 7.16134528 9.78471567 5 7 C5 6.34 5 5.68 5 5 C4.34 5 3.68 5 3 5 C3 3.68 3 2.36 3 1 C2.01 0.67 1.02 0.34 0 0 Z " fill="#CD89CD" transform="translate(226,168)"/>
<path d="M0 0 C1.32 0.33 2.64 0.66 4 1 C3.01 2.485 3.01 2.485 2 4 C-1.125 4.1875 -1.125 4.1875 -4 4 C-4 5.32 -4 6.64 -4 8 C-1.58354218 8.16687448 -1.58354218 8.16687448 1 8 C1.66 7.34 2.32 6.68 3 6 C3 7.32 3 8.64 3 10 C-3.15234375 10.09765625 -3.15234375 10.09765625 -5 10 C-6 9 -6 9 -6.0625 5.9375 C-6.041875 4.968125 -6.02125 3.99875 -6 3 C-4.02 2.34 -2.04 1.68 0 1 C0 0.67 0 0.34 0 0 Z " fill="#C86DC4" transform="translate(165,163)"/>
<path d="M0 0 C1.98 0 3.96 0 6 0 C6.33 2.31 6.66 4.62 7 7 C4.36 7 1.72 7 -1 7 C-0.67 4.69 -0.34 2.38 0 0 Z " fill="#9C2AA6" transform="translate(163,186)"/>
<path d="M0 0 C0 1.65 0 3.3 0 5 C-4.00952575 6.33650858 -7.82016197 6.20225023 -12 6 C-12.66 5.34 -13.32 4.68 -14 4 C-11.36 4 -8.72 4 -6 4 C-6 2.68 -6 1.36 -6 0 C-3.50907189 -1.24546405 -2.58919267 -0.7767578 0 0 Z " fill="#C985C6" transform="translate(159,159)"/>
<path d="M0 0 C0.042721 1.66611905 0.04063832 3.33382885 0 5 C-1 6 -1 6 -3.5 6.125 C-6 6 -6 6 -7 5 C-7.04063832 3.33382885 -7.042721 1.66611905 -7 0 C-3.86650268 -1.04449911 -3.01031744 -0.93423645 0 0 Z " fill="#C060BA" transform="translate(149,184)"/>
<path d="M0 0 C0.33 1.32 0.66 2.64 1 4 C-0.45792884 4.05399736 -1.91642712 4.09279177 -3.375 4.125 C-4.18710937 4.14820313 -4.99921875 4.17140625 -5.8359375 4.1953125 C-8 4 -8 4 -10 2 C-9 0 -9 0 -7.25 -0.6875 C-4.60760177 -1.05449975 -2.57327078 -0.64331769 0 0 Z " fill="#C829C1" transform="translate(399,180)"/>
<path d="M0 0 C3.63 0 7.26 0 11 0 C10.67 0.66 10.34 1.32 10 2 C9.34 1.67 8.68 1.34 8 1 C8.33 2.98 8.66 4.96 9 7 C7.35 7 5.7 7 4 7 C3.67 5.02 3.34 3.04 3 1 C2.34 1 1.68 1 1 1 C0.67 1.66 0.34 2.32 0 3 C0 2.01 0 1.02 0 0 Z M5 4 C5 4.66 5 5.32 5 6 C5.99 6 6.98 6 8 6 C8 5.34 8 4.68 8 4 C7.01 4 6.02 4 5 4 Z " fill="#CE68CA" transform="translate(264,220)"/>
<path d="M0 0 C0.66 0 1.32 0 2 0 C2 1.65 2 3.3 2 5 C1.34 5 0.68 5 0 5 C0 5.66 0 6.32 0 7 C-2.40545638 8.20272819 -3.94996953 8.10071472 -6.625 8.0625 C-7.85089844 8.04896484 -7.85089844 8.04896484 -9.1015625 8.03515625 C-10.04128906 8.01775391 -10.04128906 8.01775391 -11 8 C-10.67 7.34 -10.34 6.68 -10 6 C-7.93359375 5.3671875 -7.93359375 5.3671875 -5.4375 4.875 C-4.61121094 4.70742187 -3.78492188 4.53984375 -2.93359375 4.3671875 C-1.97646484 4.18542969 -1.97646484 4.18542969 -1 4 C-0.67 2.68 -0.34 1.36 0 0 Z " fill="#CE26C6" transform="translate(423,191)"/>
<path d="M0 0 C3.4375 0.8125 3.4375 0.8125 7 2 C7.33 2.99 7.66 3.98 8 5 C7.01 6.485 7.01 6.485 6 8 C2.375 8.1875 2.375 8.1875 -1 8 C-0.34 7.34 0.32 6.68 1 6 C0.66179847 3.98045559 0.66179847 3.98045559 0 2 C0 1.34 0 0.68 0 0 Z " fill="#BE68BE" transform="translate(206,238)"/>
<path d="M0 0 C1.2065625 0.0309375 1.2065625 0.0309375 2.4375 0.0625 C1.1175 0.3925 -0.2025 0.7225 -1.5625 1.0625 C-1.5625 4.3625 -1.5625 7.6625 -1.5625 11.0625 C0.0875 11.0625 1.7375 11.0625 3.4375 11.0625 C3.1075 12.0525 2.7775 13.0425 2.4375 14.0625 C0.77138095 14.105221 -0.89632885 14.10313832 -2.5625 14.0625 C-3.5625 13.0625 -3.5625 13.0625 -3.6953125 10.375 C-3.69273437 9.281875 -3.69015625 8.18875 -3.6875 7.0625 C-3.69007813 5.969375 -3.69265625 4.87625 -3.6953125 3.75 C-3.51422854 0.08571289 -3.51422854 0.08571289 0 0 Z " fill="#CA47C0" transform="translate(437.5625,182.9375)"/>
<path d="M0 0 C1.67542976 0.28604898 3.34385343 0.61781233 5 1 C5 2.98 5 4.96 5 7 C3.02 7 1.04 7 -1 7 C-1.04254356 5.00045254 -1.04080783 2.99958364 -1 1 C-0.67 0.67 -0.34 0.34 0 0 Z " fill="#CE28C6" transform="translate(173,170)"/>
<path d="M0 0 C0.66 0 1.32 0 2 0 C2.69508823 6.51244208 3.31909709 12.5510809 2 19 C-0.96732013 13.75571585 -1.38939058 7.78136128 -0.5625 1.875 C-0.376875 1.25625 -0.19125 0.6375 0 0 Z " fill="#A750A7" transform="translate(232,201)"/>
<path d="M0 0 C0.99 0.99 1.98 1.98 3 3 C2.67 3.66 2.34 4.32 2 5 C-1.3 5 -4.6 5 -8 5 C-8 5.66 -8 6.32 -8 7 C-6.02 7 -4.04 7 -2 7 C-2 7.33 -2 7.66 -2 8 C-4.31 8 -6.62 8 -9 8 C-9 6.35 -9 4.7 -9 3 C-6.03 3 -3.06 3 0 3 C0 2.01 0 1.02 0 0 Z " fill="#BC43B5" transform="translate(467,188)"/>
<path d="M0 0 C1.32 1.32 2.64 2.64 4 4 C3.67 4.99 3.34 5.98 3 7 C2.34 7 1.68 7 1 7 C-0.2375 7.0928125 -0.2375 7.0928125 -1.5 7.1875 C-2.325 7.125625 -3.15 7.06375 -4 7 C-4.66 6.01 -5.32 5.02 -6 4 C-5.01 4 -4.02 4 -3 4 C-3 3.34 -3 2.68 -3 2 C-2.01 2 -1.02 2 0 2 C0 1.34 0 0.68 0 0 Z " fill="#D24ECC" transform="translate(423,181)"/>
<path d="M0 0 C1.32 0 2.64 0 4 0 C4 0.66 4 1.32 4 2 C3.01 2 2.02 2 1 2 C1 2.66 1 3.32 1 4 C-0.134375 4.12375 -1.26875 4.2475 -2.4375 4.375 C-4.2009375 4.684375 -4.2009375 4.684375 -6 5 C-6.33 5.66 -6.66 6.32 -7 7 C-7.66 7 -8.32 7 -9 7 C-9 5.35 -9 3.7 -9 2 C-6.94921875 1.77213542 -4.8984375 1.54427083 -2.84765625 1.31640625 C-0.98859771 1.18113386 -0.98859771 1.18113386 0 0 Z " fill="#C13AB9" transform="translate(419,181)"/>
<path d="M0 0 C1.98 0 3.96 0 6 0 C6 2.31 6 4.62 6 7 C4.02 7 2.04 7 0 7 C0 6.34 0 5.68 0 5 C0.66 5 1.32 5 2 5 C2 4.34 2 3.68 2 3 C1.34 2.67 0.68 2.34 0 2 C0 1.34 0 0.68 0 0 Z " fill="#9A2CA4" transform="translate(179,170)"/>
<path d="M0 0 C2.8125 0.75 2.8125 0.75 3.8125 1.75 C3.85330783 3.74958364 3.85504356 5.75045254 3.8125 7.75 C3.1525 6.43 2.4925 5.11 1.8125 3.75 C1.1525 4.41 0.4925 5.07 -0.1875 5.75 C-2.4975 4.76 -4.8075 3.77 -7.1875 2.75 C-4.59450907 0.25673949 -3.67556276 -0.28827943 0 0 Z " fill="#D178CA" transform="translate(398.1875,225.25)"/>
<path d="M0 0 C0.33 0 0.66 0 1 0 C1 2.64 1 5.28 1 8 C1.66 8 2.32 8 3 8 C3 5.69 3 3.38 3 1 C3.33 1 3.66 1 4 1 C4 3.97 4 6.94 4 10 C2.68 10.33 1.36 10.66 0 11 C-1 10 -1 10 -1.1328125 7.96875 C-1.13023437 7.1540625 -1.12765625 6.339375 -1.125 5.5 C-1.12757813 4.6853125 -1.13015625 3.870625 -1.1328125 3.03125 C-1 1 -1 1 0 0 Z " fill="#D08ECC" transform="translate(323,224)"/>
<path d="M0 0 C0.99 0 1.98 0 3 0 C3.66 1.98 4.32 3.96 5 6 C4.34 6.66 3.68 7.32 3 8 C2.01 8 1.02 8 0 8 C-1 7 -1 7 -1.125 4 C-1 1 -1 1 0 0 Z " fill="#BF47BC" transform="translate(457,225)"/>
<path d="M0 0 C2 3.75 2 3.75 2 6 C4.41645782 6.16687448 4.41645782 6.16687448 7 6 C7.66 5.34 8.32 4.68 9 4 C9.99 4 10.98 4 12 4 C12 4.99 12 5.98 12 7 C9.47524538 8.26237731 7.68799534 8.09856404 4.875 8.0625 C3.96492188 8.05347656 3.05484375 8.04445312 2.1171875 8.03515625 C1.41851562 8.02355469 0.71984375 8.01195312 0 8 C0 5.36 0 2.72 0 0 Z " fill="#D058C4" transform="translate(410,188)"/>
<path d="M0 0 C4.83256305 0.41421969 6.82679218 2.46413986 10 6 C8.35 5.67 6.7 5.34 5 5 C5 4.34 5 3.68 5 3 C4.34 3 3.68 3 3 3 C3.33 4.32 3.66 5.64 4 7 C2.68 6.34 1.36 5.68 0 5 C0 3.35 0 1.7 0 0 Z " fill="#C766C3" transform="translate(204,189)"/>
<path d="M0 0 C0.66 0.33 1.32 0.66 2 1 C2 3.97 2 6.94 2 10 C2.66 10.33 3.32 10.66 4 11 C4 11.99 4 12.98 4 14 C3.01 14 2.02 14 1 14 C1 12.68 1 11.36 1 10 C-1.31 9.67 -3.62 9.34 -6 9 C-3 7 -3 7 1 7 C0.67 4.69 0.34 2.38 0 0 Z " fill="#AF44B8" transform="translate(177,161)"/>
<path d="M0 0 C-0.66 0.66 -1.32 1.32 -2 2 C-3.32 2 -4.64 2 -6 2 C-6.33 4.31 -6.66 6.62 -7 9 C-7.33 8.34 -7.66 7.68 -8 7 C-8.66 7 -9.32 7 -10 7 C-10.1875 4.625 -10.1875 4.625 -10 2 C-6.3558226 -0.4294516 -4.28758728 -0.16179575 0 0 Z " fill="#BB40B3" transform="translate(359,221)"/>
<path d="M0 0 C0.6875 2.0625 0.6875 2.0625 1 4 C-6.75 4.125 -6.75 4.125 -9 3 C-9 2.34 -9 1.68 -9 1 C-3.375 -1.125 -3.375 -1.125 0 0 Z " fill="#BF2EB9" transform="translate(402,195)"/>
<path d="M0 0 C1.00016187 2.00032373 1.49396008 3.83125748 2 6 C5.05263664 6.98120464 6.94736336 6.98120464 10 6 C8.9375 7.5 8.9375 7.5 7 9 C3.4375 9.3125 3.4375 9.3125 0 9 C-2 7 -2 7 -2.125 3.875 C-2.08375 2.92625 -2.0425 1.9775 -2 1 C-1.34 0.67 -0.68 0.34 0 0 Z " fill="#D066CD" transform="translate(391,187)"/>
<path d="M0 0 C0.33 0.66 0.66 1.32 1 2 C2.65 1.34 4.3 0.68 6 0 C7.35439668 2.70879335 7.06501451 5.00933268 7 8 C6.67 7.01 6.34 6.02 6 5 C4.02 5.33 2.04 5.66 0 6 C0 4.02 0 2.04 0 0 Z " fill="#C03BB6" transform="translate(420,186)"/>
<path d="M0 0 C0.98120464 3.05263664 0.98120464 4.94736336 0 8 C0.99 8.33 1.98 8.66 3 9 C2.34 9 1.68 9 1 9 C0.67 9.99 0.34 10.98 0 12 C-1.32 11.67 -2.64 11.34 -4 11 C-3.52269162 9.5410574 -3.04308958 8.08286504 -2.5625 6.625 C-2.29566406 5.81289062 -2.02882813 5.00078125 -1.75390625 4.1640625 C-1 2 -1 2 0 0 Z " fill="#CA7AC2" transform="translate(304,223)"/>
<path d="M0 0 C-0.33 0.99 -0.66 1.98 -1 3 C-2.65 3 -4.3 3 -6 3 C-6 4.65 -6 6.3 -6 8 C-6.99 8.495 -6.99 8.495 -8 9 C-8 6.36 -8 3.72 -8 1 C-5.29120665 -0.35439668 -2.99066732 -0.06501451 0 0 Z " fill="#CF7ACA" transform="translate(169,176)"/>
<path d="M0 0 C0.33 0.99 0.66 1.98 1 3 C-0.4375 5.1875 -0.4375 5.1875 -2 7 C-3.65 6.67 -5.3 6.34 -7 6 C-7 4.68 -7 3.36 -7 2 C-4.69 1.34 -2.38 0.68 0 0 Z " fill="#C82BC0" transform="translate(168,165)"/>
<path d="M0 0 C2.97 0.33 5.94 0.66 9 1 C8.67 1.99 8.34 2.98 8 4 C4.7 4 1.4 4 -2 4 C-1.34 2.68 -0.68 1.36 0 0 Z " fill="#F8F3F4" transform="translate(373,212)"/>
<path d="M0 0 C1.125 1.8125 1.125 1.8125 1.125 5.8125 C-0.195 5.4825 -1.515 5.1525 -2.875 4.8125 C-2.545 4.1525 -2.215 3.4925 -1.875 2.8125 C-2.865 2.8125 -3.855 2.8125 -4.875 2.8125 C-4.875 2.1525 -4.875 1.4925 -4.875 0.8125 C-5.865 0.4825 -6.855 0.1525 -7.875 -0.1875 C-2.40664557 -1.52420886 -2.40664557 -1.52420886 0 0 Z " fill="#D474CA" transform="translate(469.875,194.1875)"/>
<path d="M0 0 C0.33 0 0.66 0 1 0 C1 2.97 1 5.94 1 9 C1.66 9 2.32 9 3 9 C3 8.01 3 7.02 3 6 C3.66 6 4.32 6 5 6 C4.34 7.98 3.68 9.96 3 12 C1.68 11.67 0.36 11.34 -1 11 C-0.67 7.37 -0.34 3.74 0 0 Z " fill="#CE77CD" transform="translate(265,223)"/>
<path d="M0 0 C0.66 0 1.32 0 2 0 C2 2.31 2 4.62 2 7 C0.02 7.99 0.02 7.99 -2 9 C-2.33 7.68 -2.66 6.36 -3 5 C-2.34 5 -1.68 5 -1 5 C-0.67 3.35 -0.34 1.7 0 0 Z " fill="#B363B6" transform="translate(232,224)"/>
<path d="M0 0 C0.99 0.33 1.98 0.66 3 1 C4.6875 4.5625 4.6875 4.5625 6 8 C5.01 8.495 5.01 8.495 4 9 C3.67 8.34 3.34 7.68 3 7 C2.01 7.33 1.02 7.66 0 8 C0 5.33333333 0 2.66666667 0 0 Z " fill="#CE64C6" transform="translate(307,219)"/>
<path d="M0 0 C2.3125 -0.25 2.3125 -0.25 5 0 C6.8125 2 6.8125 2 8 4 C5.36 4 2.72 4 0 4 C-0.33 5.32 -0.66 6.64 -1 8 C-0.67 5.36 -0.34 2.72 0 0 Z " fill="#F4DAFA" transform="translate(284,216)"/>
<path d="M0 0 C-0.99 0.495 -0.99 0.495 -2 1 C-2 1.66 -2 2.32 -2 3 C-2.66 3 -3.32 3 -4 3 C-4.33 3.99 -4.66 4.98 -5 6 C-5.66 6 -6.32 6 -7 6 C-7 4.35 -7 2.7 -7 1 C-7.66 0.67 -8.32 0.34 -9 0 C-5.93109813 -1.53445094 -3.29905734 -0.54984289 0 0 Z " fill="#EEE4EE" transform="translate(176,194)"/>
<path d="M0 0 C0.33 1.32 0.66 2.64 1 4 C1.66 4 2.32 4 3 4 C3.66 3.34 4.32 2.68 5 2 C5.66 3.65 6.32 5.3 7 7 C6.01 7.33 5.02 7.66 4 8 C3.67 8.66 3.34 9.32 3 10 C0.64551835 7.44931155 0.01672076 6.28982642 -0.1875 2.75 C-0.125625 1.8425 -0.06375 0.935 0 0 Z " fill="#CF80CB" transform="translate(348,224)"/>
<path d="M0 0 C0.66 0.66 1.32 1.32 2 2 C5.12814514 2.24360073 5.12814514 2.24360073 8.625 2.125 C9.81351562 2.10695312 11.00203125 2.08890625 12.2265625 2.0703125 C13.14179688 2.04710937 14.05703125 2.02390625 15 2 C15 2.33 15 2.66 15 3 C14.37351562 3.03738281 13.74703125 3.07476562 13.1015625 3.11328125 C12.28429687 3.17902344 11.46703125 3.24476563 10.625 3.3125 C9.40683594 3.39951172 9.40683594 3.39951172 8.1640625 3.48828125 C5.62078662 3.82990528 5.62078662 3.82990528 4 7 C2.68 6.34 1.36 5.68 0 5 C0 3.35 0 1.7 0 0 Z " fill="#C129B9" transform="translate(453,181)"/>
<path d="M0 0 C0.66 0.33 1.32 0.66 2 1 C2 2.32 2 3.64 2 5 C5.465 4.505 5.465 4.505 9 4 C8.67 4.66 8.34 5.32 8 6 C5.36 6 2.72 6 0 6 C0.33 6.99 0.66 7.98 1 9 C0.34 9 -0.32 9 -1 9 C-2.25541557 5.23375329 -1.37061958 3.62811066 0 0 Z " fill="#D478D3" transform="translate(248,225)"/>
<path d="M0 0 C6.15234375 0.5859375 6.15234375 0.5859375 8 1 C8.33 1.66 8.66 2.32 9 3 C6.09399739 4.25664978 4.20395416 5 1 5 C0.67 3.35 0.34 1.7 0 0 Z " fill="#F8F0F5" transform="translate(288,213)"/>
<path d="M0 0 C2.625 -0.1875 2.625 -0.1875 5 0 C4.01 0.33 3.02 0.66 2 1 C2 4.96 2 8.92 2 13 C1.67 13 1.34 13 1 13 C0.8046875 10.98177083 0.609375 8.96354167 0.4140625 6.9453125 C0.13625251 4.77331755 0.13625251 4.77331755 -2 3 C-1.34 2.01 -0.68 1.02 0 0 Z " fill="#DD94DE" transform="translate(155,201)"/>
<path d="M0 0 C2.31 0 4.62 0 7 0 C7 0.33 7 0.66 7 1 C5.35 1 3.7 1 2 1 C2 3.31 2 5.62 2 8 C1.01 7.67 0.02 7.34 -1 7 C-0.67 4.69 -0.34 2.38 0 0 Z " fill="#C275C6" transform="translate(162,193)"/>
<path d="M0 0 C0.66 0 1.32 0 2 0 C1.34 2.97 0.68 5.94 0 9 C-0.66 9 -1.32 9 -2 9 C-2.125 5.625 -2.125 5.625 -2 2 C-1.34 1.34 -0.68 0.68 0 0 Z " fill="#B84DB3" transform="translate(247,222)"/>
<path d="M0 0 C0.33 0 0.66 0 1 0 C1 5.28 1 10.56 1 16 C0.67 16 0.34 16 0 16 C0 14.35 0 12.7 0 11 C-0.99 11.33 -1.98 11.66 -3 12 C-2.690625 11.319375 -2.38125 10.63875 -2.0625 9.9375 C-0.86629351 6.63034088 -0.40994603 3.48454122 0 0 Z " fill="#CD90CD" transform="translate(234,213)"/>
<path d="M0 0 C1.32 0.33 2.64 0.66 4 1 C3.67 2.32 3.34 3.64 3 5 C1.35 4.67 -0.3 4.34 -2 4 C-1.34 2.68 -0.68 1.36 0 0 Z " fill="#BD2EBB" transform="translate(150,197)"/>
<path d="M0 0 C2.64 0 5.28 0 8 0 C8 2.97 8 5.94 8 9 C7.01 9 6.02 9 5 9 C5.2475 7.824375 5.2475 7.824375 5.5 6.625 C6.0623707 4.11791961 6.0623707 4.11791961 6 2 C3.03 1.505 3.03 1.505 0 1 C0 0.67 0 0.34 0 0 Z " fill="#C667B9" transform="translate(436,184)"/>
<path d="M0 0 C0.99 0 1.98 0 3 0 C3 0.66 3 1.32 3 2 C5.31 2 7.62 2 10 2 C10 2.66 10 3.32 10 4 C7.36 4.33 4.72 4.66 2 5 C1.01 3.68 0.02 2.36 -1 1 C-0.67 0.67 -0.34 0.34 0 0 Z " fill="#DA6ED6" transform="translate(284,226)"/>
<path d="M0 0 C0.33 1.32 0.66 2.64 1 4 C1.99 4 2.98 4 4 4 C4.33 3.34 4.66 2.68 5 2 C4.37240135 4.92879371 3.41377341 7.36095629 2 10 C1.34 10 0.68 10 0 10 C0 6.7 0 3.4 0 0 Z " fill="#C02AB4" transform="translate(405,186)"/>
<path d="M0 0 C1.32 1.32 2.64 2.64 4 4 C3.67 4.66 3.34 5.32 3 6 C0.36 6 -2.28 6 -5 6 C-3.35 4.02 -1.7 2.04 0 0 Z " fill="#912FA1" transform="translate(158,196)"/>
<path d="M0 0 C0.66 0 1.32 0 2 0 C3.231394 3.69418201 2.64432764 6.2056261 2 10 C1.34 10 0.68 10 0 10 C0 6.7 0 3.4 0 0 Z " fill="#C435BF" transform="translate(324,222)"/>
<path d="M0 0 C3.3 0 6.6 0 10 0 C10 1.32 10 2.64 10 4 C8.35 4 6.7 4 5 4 C5.99 3.67 6.98 3.34 8 3 C8 2.34 8 1.68 8 1 C5.36 1 2.72 1 0 1 C0 0.67 0 0.34 0 0 Z " fill="#D694D2" transform="translate(284,220)"/>
<path d="M0 0 C0.66 0.66 1.32 1.32 2 2 C1.75558954 4.52557477 1.17639341 5.7852602 -0.4375 7.75 C-2 9 -2 9 -4 9 C-4 8.01 -4 7.02 -4 6 C-3.01 5.34 -2.02 4.68 -1 4 C-0.27617533 1.94074861 -0.27617533 1.94074861 0 0 Z " fill="#C75EC2" transform="translate(448,191)"/>
<path d="M0 0 C0.33 1.32 0.66 2.64 1 4 C0.34 4 -0.32 4 -1 4 C-1 7.3 -1 10.6 -1 14 C-1.33 14 -1.66 14 -2 14 C-3.45295405 5.96498906 -3.45295405 5.96498906 -1.5625 1.9375 C-1.046875 1.298125 -0.53125 0.65875 0 0 Z " fill="#CC62BE" transform="translate(406,182)"/>
<path d="M0 0 C0.66 0 1.32 0 2 0 C3.42944945 2.35438733 4.08661261 3.48032433 3.625 6.25 C3.41875 6.8275 3.2125 7.405 3 8 C2.34 7.01 1.68 6.02 1 5 C0.01 5.495 0.01 5.495 -1 6 C-1.625 4.125 -1.625 4.125 -2 2 C-1.34 1.34 -0.68 0.68 0 0 Z " fill="#C94AC2" transform="translate(388,180)"/>
<path d="M0 0 C-0.99 1.485 -0.99 1.485 -2 3 C-5.37462715 2.45276317 -7.08235 1.9451 -10 0 C-3.375 -1.125 -3.375 -1.125 0 0 Z " fill="#FABDFA" transform="translate(402,201)"/>
<path d="M0 0 C1.4540625 0.0309375 1.4540625 0.0309375 2.9375 0.0625 C3.2675 0.7225 3.5975 1.3825 3.9375 2.0625 C3.6075 2.7225 3.2775 3.3825 2.9375 4.0625 C-0.02425123 3.44972388 -1.44308783 2.80877478 -4.0625 1.0625 C-3.0625 0.0625 -3.0625 0.0625 0 0 Z " fill="#F7EBF8" transform="translate(183.0625,189.9375)"/>
<path d="M0 0 C0 0.99 0 1.98 0 3 C-3.375 3.125 -3.375 3.125 -7 3 C-7.66 2.34 -8.32 1.68 -9 1 C-6.04335481 -0.4783226 -3.25770263 -0.06032783 0 0 Z " fill="#C728C3" transform="translate(162,190)"/>
<path d="M0 0 C5.41538462 -0.36923077 5.41538462 -0.36923077 8.375 1.5 C8.91125 1.995 9.4475 2.49 10 3 C7.03 3 4.06 3 1 3 C0.67 2.01 0.34 1.02 0 0 Z " fill="#DA6AD1" transform="translate(413,178)"/>
<path d="M0 0 C0.66 0 1.32 0 2 0 C1.67 1.98 1.34 3.96 1 6 C0.01 6.33 -0.98 6.66 -2 7 C-2.33 5.68 -2.66 4.36 -3 3 C-2.34 3 -1.68 3 -1 3 C-0.67 2.01 -0.34 1.02 0 0 Z " fill="#BC34B6" transform="translate(213,198)"/>
<path d="M0 0 C0.99 0.99 1.98 1.98 3 3 C1.35 4.65 -0.3 6.3 -2 8 C-1.34 5.36 -0.68 2.72 0 0 Z " fill="#CD79CB" transform="translate(216,196)"/>
<path d="M0 0 C1.98 0.495 1.98 0.495 4 1 C3.67 2.32 3.34 3.64 3 5 C1.68 4.67 0.36 4.34 -1 4 C-0.67 2.68 -0.34 1.36 0 0 Z " fill="#CD27C5" transform="translate(154,176)"/>
<path d="M0 0 C0 0.66 0 1.32 0 2 C-2.97 2 -5.94 2 -9 2 C-4 -1.33333333 -4 -1.33333333 0 0 Z " fill="#AC39AF" transform="translate(192,243)"/>
<path d="M0 0 C1.98 0.66 3.96 1.32 6 2 C6 2.99 6 3.98 6 5 C5.67 4.67 5.34 4.34 5 4 C4.34 4.66 3.68 5.32 3 6 C2.01 4.02 1.02 2.04 0 0 Z " fill="#C476C6" transform="translate(199,233)"/>
<path d="M0 0 C2.31 0 4.62 0 7 0 C6.67 0.99 6.34 1.98 6 3 C3.03 2.505 3.03 2.505 0 2 C0 1.34 0 0.68 0 0 Z " fill="#B640B3" transform="translate(287,226)"/>
<path d="M0 0 C2.64 0 5.28 0 8 0 C8.66 1.32 9.32 2.64 10 4 C9.01 4.33 8.02 4.66 7 5 C7 3.68 7 2.36 7 1 C4.69 1 2.38 1 0 1 C0 0.67 0 0.34 0 0 Z " fill="#C483C4" transform="translate(459,220)"/>
<path d="M0 0 C0.99 0.33 1.98 0.66 3 1 C2.67 3.31 2.34 5.62 2 8 C0.4375 6.8125 0.4375 6.8125 -1 5 C-0.6875 2.3125 -0.6875 2.3125 0 0 Z " fill="#D695D2" transform="translate(189,188)"/>
<path d="M0 0 C1.2065625 0.0309375 1.2065625 0.0309375 2.4375 0.0625 C1.1175 0.3925 -0.2025 0.7225 -1.5625 1.0625 C-1.2325 2.7125 -0.9025 4.3625 -0.5625 6.0625 C-1.5525 6.5575 -1.5525 6.5575 -2.5625 7.0625 C-2.94383299 5.0710944 -3.27575582 3.06970923 -3.5625 1.0625 C-2.5625 0.0625 -2.5625 0.0625 0 0 Z " fill="#D183CE" transform="translate(156.5625,183.9375)"/>
<path d="M0 0 C-3.44450737 2.29633824 -5.93812283 2.54016485 -10 3 C-7.29536552 -0.8183075 -4.37912428 -0.24787496 0 0 Z " fill="#C34DBD" transform="translate(417,179)"/>
</svg>
